# xmcd
#
# Track frame offsets:
#	150
#	11262
#	22880
#	40840
#	59447
#	75852
#	91207
#	108330
#	126422
#	146347
#	166650
#	182577
#	196250
#	224475
#	246812
#	263597
#	284645
#	298287
#	320817
#
# Disc length: 4499 seconds
#
# Revision: 3
# Processed by: cddbd v1.5.2PL0 Copyright (c) Steve Scherf et al.
# Submitted via: EZCDAudioConverter 8.0.7.1
#
DISCID=0a119113
DTITLE=Steve Earle - Definitive Collection 83-97
DYEAR=2006
DGENRE=Country
TTITLE0=Nothin' But You
TTITLE1=Guitar Town
TTITLE2=Good Ol' Boy (Gettin' Tough)
TTITLE3=Fearless Heart
TTITLE4=Hillbilly Highway
TTITLE5=Goodbye's All We've Got Left
TTITLE6=Someday
TTITLE7=I Ain't Ever Satisfied
TTITLE8=The Week Of Living Dangerously
TTITLE9=Copperhead Road
TTITLE10=Snake Oil
TTITLE11=Devil's Right Hand
TTITLE12=Billy Austin
TTITLE13=Goodbye
TTITLE14=Valentine's Day
TTITLE15=Ellis Unit One
TTITLE16=Feel Alright
TTITLE17=Christmas In Washington
TTITLE18=Telephone Road
EXTD=
EXTT0=
EXTT1=
EXTT2=
EXTT3=
EXTT4=
EXTT5=
EXTT6=
EXTT7=
EXTT8=
EXTT9=
EXTT10=
EXTT11=
EXTT12=
EXTT13=
EXTT14=
EXTT15=
EXTT16=
EXTT17=
EXTT18=
PLAYORDER=
